<svg xmlns="http://www.w3.org/2000/svg" width="206.542" height="42" viewBox="0 0 206.542 42">
  <g id="Grupo_1" data-name="Grupo 1" transform="translate(-528.363 -161.147)">
    <rect id="Rectángulo_1" data-name="Rectángulo 1" width="42" height="42" rx="2" transform="translate(528.363 161.147)" fill="#e51a52"/>
    <g id="Grupo_1-2" data-name="Grupo 1" transform="translate(578.628 175.025)">
      <path id="Trazado_1" data-name="Trazado 1" d="M667.6,214.714v-2.373h1.878v-9.3H667.6v-2.373h5.9l5.168,8.76v-6.387h-1.828v-2.373h6.3v2.373h-1.969v11.776h-3.131L671.984,204.4v7.938h1.767v2.373Z" transform="translate(-667.601 -200.424)" fill="#e51a52"/>
      <path id="Trazado_2" data-name="Trazado 2" d="M718.761,222.069a5.2,5.2,0,0,1-3.651-1.369,5.469,5.469,0,0,1,0-7.5,5.559,5.559,0,0,1,7.307,0,5.484,5.484,0,0,1,.015,7.488A5.146,5.146,0,0,1,718.761,222.069Zm-.01-2.424a1.729,1.729,0,0,0,1.409-.667,3.3,3.3,0,0,0,.54-2.09,3.2,3.2,0,0,0-.525-1.954,1.684,1.684,0,0,0-1.423-.7q-1.93,0-1.93,2.787a3.41,3.41,0,0,0,.48,1.884A1.609,1.609,0,0,0,718.751,219.645Z" transform="translate(-697.007 -207.556)" fill="#e51a52"/>
      <path id="Trazado_3" data-name="Trazado 3" d="M745.374,208.066v-2.252h1.242v-1.535l3.12-2.242v3.777h1.8v2.252h-1.8v4.24a1.4,1.4,0,0,0,.147.774q.146.2.672.2a2.85,2.85,0,0,0,.979-.2v2.161a6.149,6.149,0,0,1-2.353.495,2.26,2.26,0,0,1-2.565-2.548v-5.117Z" transform="translate(-717.298 -201.3)" fill="#e51a52"/>
      <path id="Trazado_4" data-name="Trazado 4" d="M777.255,219.594v2.252h-4.7v-.772a4.472,4.472,0,0,1-2.666.914,3.942,3.942,0,0,1-2.509-.828,2.678,2.678,0,0,1-1.055-2.222,2.972,2.972,0,0,1,1.111-2.353,4.258,4.258,0,0,1,2.867-.95,6.335,6.335,0,0,1,2.252.495v-.6a1.618,1.618,0,0,0-.5-1.227,1.883,1.883,0,0,0-1.353-.48,2.42,2.42,0,0,0-1.8.767l-2.514-.455q1.091-2.312,4.736-2.313a7.331,7.331,0,0,1,2.343.318,3.238,3.238,0,0,1,1.383.823,2.96,2.96,0,0,1,.641,1.106,7.246,7.246,0,0,1,.187,1.954v3.564Zm-4.7-1.363a3.773,3.773,0,0,0-1.807-.707,1.64,1.64,0,0,0-.975.313,1.046,1.046,0,0,0-.439.909,1.309,1.309,0,0,0,.353.919,1.18,1.18,0,0,0,.909.384,3.073,3.073,0,0,0,1.959-1.02Z" transform="translate(-730.688 -207.556)" fill="#e51a52"/>
      <path id="Trazado_5" data-name="Trazado 5" d="M805.824,219.756v2.252h-6.878v-2.252h1.808v-5.272h-1.7v-2.252h4.555v2.484a3.467,3.467,0,0,1,1.2-1.853,3.33,3.33,0,0,1,2.207-.782q.212,0,.505.01v2.949a5.913,5.913,0,0,0-1.929.263,2.3,2.3,0,0,0-1.232,1.151,4.32,4.32,0,0,0-.485,2.1v1.2Z" transform="translate(-751.531 -207.718)" fill="#e51a52"/>
      <path id="Trazado_6" data-name="Trazado 6" d="M826.923,206.761v-2.252h4.6v7.524h1.455v2.252h-6.059v-2.252h1.484v-5.272Zm1.373-5.054a1.654,1.654,0,0,1,.5-1.208,1.7,1.7,0,0,1,2.419,0,1.665,1.665,0,0,1,.495,1.208,1.707,1.707,0,0,1-3.414,0Z" transform="translate(-769.408 -199.995)" fill="#e51a52"/>
      <path id="Trazado_7" data-name="Trazado 7" d="M852.122,222.069a5.2,5.2,0,0,1-3.651-1.369,5.469,5.469,0,0,1,0-7.5,5.559,5.559,0,0,1,7.307,0,5.485,5.485,0,0,1,.015,7.488A5.146,5.146,0,0,1,852.122,222.069Zm-.01-2.424a1.729,1.729,0,0,0,1.409-.667,3.3,3.3,0,0,0,.54-2.09,3.2,3.2,0,0,0-.525-1.954,1.684,1.684,0,0,0-1.423-.7q-1.93,0-1.93,2.787a3.4,3.4,0,0,0,.48,1.884A1.609,1.609,0,0,0,852.112,219.645Z" transform="translate(-782.225 -207.556)" fill="#e51a52"/>
      <path id="Trazado_8" data-name="Trazado 8" d="M891.188,214.432H882.5a2.677,2.677,0,0,0-.08.628,2.838,2.838,0,0,0,.789,2.136,2.721,2.721,0,0,0,1.976.765A3.4,3.4,0,0,0,888,216.386l2.159.925a4.781,4.781,0,0,1-2.023,1.776,6.409,6.409,0,0,1-2.924.691,4.663,4.663,0,0,1-5.038-4.924,6.528,6.528,0,0,1,.874-3.267,7.334,7.334,0,0,1,2.337-2.519,5.64,5.64,0,0,1,3.2-.977,4.565,4.565,0,0,1,3.433,1.376,4.952,4.952,0,0,1,1.331,3.593A5.739,5.739,0,0,1,891.188,214.432Zm-1.954-1.553q.034-.355.034-.571a2.335,2.335,0,0,0-.725-1.662,2.559,2.559,0,0,0-1.925-.749,3.411,3.411,0,0,0-2.21.806,4.911,4.911,0,0,0-1.491,2.176Z" transform="translate(-803.436 -205.169)" fill="#1d1d1d"/>
      <path id="Trazado_9" data-name="Trazado 9" d="M915.615,214.289l-1.955-3.549h-1.143l.434-1.794h4.161l-.445,1.656h-1.074l1.373,2.492,2.818-2.492h-1.406l.434-1.656h4.555l-.434,1.794h-.926l-4.264,3.764,2.043,3.708h.983L920.334,220h-4.161l.434-1.656h1.245l-1.461-2.651-3,2.651h1.519L914.462,220h-4.7l.434-1.793h.983Z" transform="translate(-822.344 -205.715)" fill="#1d1d1d"/>
      <path id="Trazado_10" data-name="Trazado 10" d="M944.13,222.832h1.736l-.445,1.862H940.3l.434-1.862h1.326l2.924-12.327H943.4l.434-1.862h3.65l-.323,1.405a5.324,5.324,0,0,1,3.712-1.576,4.1,4.1,0,0,1,3.149,1.383,5.1,5.1,0,0,1,1.27,3.587,6.669,6.669,0,0,1-1.775,4.61,5.611,5.611,0,0,1-4.331,1.971,4.729,4.729,0,0,1-3.938-1.92Zm1.879-7.6a2.91,2.91,0,0,0,.815,2.193,2.855,2.855,0,0,0,2.069.788,3.792,3.792,0,0,0,3.066-1.457,5.161,5.161,0,0,0,1.2-3.376,2.973,2.973,0,0,0-.815-2.234,2.872,2.872,0,0,0-2.092-.794,3.67,3.67,0,0,0-3.044,1.576A5.384,5.384,0,0,0,946.009,215.235Z" transform="translate(-841.859 -205.411)" fill="#1d1d1d"/>
      <path id="Trazado_11" data-name="Trazado 11" d="M986.966,217.84h1.828l-.446,1.862H983l.434-1.862h1.451l1.645-7.335h-1.714l.457-1.862h3.571l-.706,3.13a7.706,7.706,0,0,1,2.241-2.519,5,5,0,0,1,2.806-.783h.5l-.48,2.033a4.96,4.96,0,0,0-.529-.034,4.672,4.672,0,0,0-2.531.668,4.881,4.881,0,0,0-1.7,1.81,11.052,11.052,0,0,0-1.03,2.9Z" transform="translate(-869.139 -205.411)" fill="#1d1d1d"/>
      <path id="Trazado_12" data-name="Trazado 12" d="M1022.525,214.432h-8.683a2.68,2.68,0,0,0-.08.628,2.84,2.84,0,0,0,.789,2.136,2.722,2.722,0,0,0,1.977.765,3.4,3.4,0,0,0,2.81-1.576l2.159.925a4.78,4.78,0,0,1-2.022,1.776,6.411,6.411,0,0,1-2.925.691,4.662,4.662,0,0,1-5.038-4.924,6.529,6.529,0,0,1,.874-3.267,7.337,7.337,0,0,1,2.336-2.519,5.641,5.641,0,0,1,3.2-.977,4.565,4.565,0,0,1,3.433,1.376,4.952,4.952,0,0,1,1.331,3.593A5.736,5.736,0,0,1,1022.525,214.432Zm-1.953-1.553q.034-.355.034-.571a2.336,2.336,0,0,0-.725-1.662,2.56,2.56,0,0,0-1.925-.749,3.412,3.412,0,0,0-2.211.806,4.911,4.911,0,0,0-1.491,2.176Z" transform="translate(-887.361 -205.169)" fill="#1d1d1d"/>
      <path id="Trazado_13" data-name="Trazado 13" d="M1044.08,216.617h1.874a1.324,1.324,0,0,0,.685,1.191,3.4,3.4,0,0,0,1.794.419,2.605,2.605,0,0,0,1.571-.41,1.217,1.217,0,0,0,.554-1,1.258,1.258,0,0,0-.48-.976,6.019,6.019,0,0,0-1.692-.881,12.812,12.812,0,0,1-1.852-.853,3.083,3.083,0,0,1-1.038-1.04,2.621,2.621,0,0,1-.411-1.4,2.917,2.917,0,0,1,1.063-2.233,4.842,4.842,0,0,1,5.781.006l.229-.788H1054l-.72,3.073h-1.851a1.271,1.271,0,0,0-.765-1.2,3.725,3.725,0,0,0-1.622-.354,2.461,2.461,0,0,0-1.434.365,1.084,1.084,0,0,0-.52.913.967.967,0,0,0,.309.736,3.772,3.772,0,0,0,1.177.62,9.073,9.073,0,0,1,3.257,1.8,2.957,2.957,0,0,1,.787,2.072A2.835,2.835,0,0,1,1051.5,219a5.172,5.172,0,0,1-3.274.887,3.729,3.729,0,0,1-2.845-.908l-.16.725h-1.874Z" transform="translate(-907.705 -205.411)" fill="#1d1d1d"/>
      <path id="Trazado_14" data-name="Trazado 14" d="M1071.74,216.617h1.874a1.323,1.323,0,0,0,.686,1.191,3.394,3.394,0,0,0,1.793.419,2.6,2.6,0,0,0,1.571-.41,1.217,1.217,0,0,0,.554-1,1.257,1.257,0,0,0-.48-.976,6.01,6.01,0,0,0-1.692-.881,12.8,12.8,0,0,1-1.852-.853,3.079,3.079,0,0,1-1.038-1.04,2.619,2.619,0,0,1-.411-1.4,2.916,2.916,0,0,1,1.063-2.233,4.843,4.843,0,0,1,5.781.006l.229-.788h1.839l-.72,3.073h-1.85a1.272,1.272,0,0,0-.765-1.2,3.729,3.729,0,0,0-1.622-.354,2.462,2.462,0,0,0-1.434.365,1.084,1.084,0,0,0-.52.913.967.967,0,0,0,.309.736,3.772,3.772,0,0,0,1.177.62,9.08,9.08,0,0,1,3.257,1.8,2.959,2.959,0,0,1,.787,2.072,2.834,2.834,0,0,1-1.114,2.329,5.171,5.171,0,0,1-3.274.887,3.729,3.729,0,0,1-2.844-.908l-.16.725h-1.873Z" transform="translate(-925.379 -205.411)" fill="#1d1d1d"/>
    </g>
    <path id="Trazado_15" data-name="Trazado 15" d="M584.794,184.942l-16.21,14.039-3.114,11.193a.66.66,0,0,0,.284.736l11.269,7.1h14.987a1.791,1.791,0,0,0,1.791-1.792v-22.56l-8.853-8.711A.114.114,0,0,0,584.794,184.942Z" transform="translate(-23.696 -15.333)" fill="#040006" opacity="0.15"/>
    <path id="Trazado_16" data-name="Trazado 16" d="M575.157,196.128l3.793-18.751c.057-.3-.017-.768-.291-.894l-5.125-2.348-5.059-2.317c-.275-.126-.679.126-.867.362l-11.728,15.006a.773.773,0,0,0-.156.542c.226,1.615,3.065,6.163,3.2,14a.623.623,0,0,0,1.2.262l4.2-9.17a2.669,2.669,0,0,1-.707-2.923,2.432,2.432,0,0,1,3.225-1.2,2.64,2.64,0,0,1,1.407,3.324,2.169,2.169,0,0,1-2.749,1.4l-4.211,9.194a.59.59,0,0,0,.905.737c6.162-4.99,11.395-5.887,12.739-6.78A.642.642,0,0,0,575.157,196.128Z" transform="translate(-17.481 -6.944)" fill="#fff"/>
    <path id="Trazado_17" data-name="Trazado 17" d="M596,196.945a.456.456,0,0,0,.161-.246l3.709-18.305c.056-.289-.005-.773-.273-.9l-5-2.289-4.932-2.259c-.129-.059-.35.1-.484.138Z" transform="translate(-38.862 -7.68)" fill="#ebecee"/>
  </g>
</svg>
